<svg width="739" height="173" viewBox="0 0 739 173" fill="none" xmlns="http://www.w3.org/2000/svg">
<path d="M57.208 86V71.888H74.68V86H85.208V48.48H74.68V62.424H57.208V48.48H46.68V86H57.208ZM99.0986 55.2V48.48H88.5706V55.2H99.0986ZM99.0986 86V57.776H88.5706V86H99.0986ZM115.005 82.864C121.221 82.864 124.189 80.12 124.917 76.032H125.477V81.968C125.477 86.728 124.413 87.4 119.877 87.4C114.389 87.4 114.109 86.84 114.109 84.544H103.581C103.581 91.936 109.293 96.08 119.149 96.08C130.013 96.08 136.005 91.32 136.005 81.24V57.776H126.149V64.384H125.589C124.805 59.512 120.997 57.216 115.285 57.216C106.941 57.216 101.901 62.032 101.901 69.984C101.901 78.048 106.605 82.864 115.005 82.864ZM112.541 69.984C112.541 67.24 113.885 66.288 118.813 66.288C123.517 66.288 125.477 66.904 125.477 69.928V70.32C125.477 73.288 123.517 73.848 118.813 73.848C113.885 73.848 112.541 72.784 112.541 69.984ZM149.903 86V71.44C149.903 67.8 151.079 66.624 155.951 66.624C160.767 66.624 162.279 67.856 162.279 71.776V86H172.807V68.248C172.807 61.976 169.223 57.216 161.719 57.216C154.495 57.216 151.359 61.584 150.463 66.344H149.903V48.48H139.375V86H149.903ZM196.158 86.56C202.822 86.56 205.958 83.424 206.798 78.72H207.358V95.52H217.886V57.776H208.03V65.392H207.47C206.574 59.792 203.214 57.216 196.606 57.216C187.982 57.216 183.222 62.76 183.222 71.888C183.222 81.072 187.87 86.56 196.158 86.56ZM193.862 71.888C193.862 68.136 195.542 66.848 200.414 66.848C205.118 66.848 207.358 67.744 207.358 71.832V72.224C207.358 76.2 205.118 76.984 200.414 76.984C195.542 76.984 193.862 75.64 193.862 71.888ZM232.835 86.56C240.507 86.56 243.643 82.136 244.259 77.432H244.819V86H254.675V57.776H244.147V72.336C244.147 75.976 242.971 77.152 238.099 77.152C233.283 77.152 231.771 75.92 231.771 72V57.776H221.243V75.864C221.243 81.968 224.939 86.56 232.835 86.56ZM266.956 86.56C273.06 86.56 276.532 84.04 277.596 80.064H278.156V86H288.012V69.928C288.012 62.032 283.252 57.216 273.396 57.216C263.82 57.216 257.548 62.032 257.548 69.536V69.648H268.076V69.424C268.076 67.072 269.14 66.4 272.612 66.4C276.364 66.4 277.596 66.848 277.596 69.704V70.264L266.116 71.384C259.732 72 256.988 74.856 256.988 78.832C256.988 83.648 260.572 86.56 266.956 86.56ZM267.572 78.16C267.572 77.544 267.964 77.208 268.916 77.096L277.54 76.088C277.26 78.608 275.188 79.224 270.092 79.224C268.468 79.224 267.572 79.056 267.572 78.16ZM301.661 86V48.48H291.133V86H301.661ZM315.552 55.2V48.48H305.024V55.2H315.552ZM315.552 86V57.776H305.024V86H315.552ZM340.026 86V76.536H334.986C332.578 76.536 331.906 75.976 331.906 73.736V66.4H340.026V57.776H331.906V52.904H321.378V57.776H317.234V66.4H321.378V75.248C321.378 82.584 325.578 86 332.634 86H340.026ZM348.755 95.52C356.987 95.52 361.299 93.784 364.323 87.12L377.707 57.776H365.947L361.747 68.752L359.899 75.36H359.171L357.155 68.864L352.283 57.776H340.299L353.795 85.664C353.347 85.888 352.675 86 351.835 86H343.659V95.52H348.755ZM410.248 86L422.904 57.776H411.368L404.256 75.752H403.528L396.472 57.776H384.712L397.256 86H410.248ZM434.825 55.2V48.48H424.297V55.2H434.825ZM434.825 86V57.776H424.297V86H434.825ZM451.012 86.56C457.62 86.56 460.98 83.984 461.876 78.384H462.436V86H472.292V48.48H461.764V65.056H461.204C460.364 60.352 457.228 57.216 450.564 57.216C442.276 57.216 437.628 62.704 437.628 71.888C437.628 81.016 442.388 86.56 451.012 86.56ZM448.268 71.888C448.268 68.136 449.948 66.792 454.82 66.792C459.524 66.792 461.764 67.576 461.764 71.552V71.944C461.764 76.032 459.524 76.928 454.82 76.928C449.948 76.928 448.268 75.64 448.268 71.888ZM491.385 86.56C500.905 86.56 506.897 82.136 506.897 75.864V75.192H496.369V75.808C496.369 77.488 495.249 78.216 490.993 78.216C486.513 78.216 485.001 77.264 484.833 73.848H506.953C507.065 72.84 507.121 72.112 507.121 71.16C507.121 62.088 500.905 57.216 491.161 57.216C481.753 57.216 475.089 62.704 475.089 71.888C475.089 82.472 481.809 86.56 491.385 86.56ZM490.937 65.28C494.857 65.28 496.537 66.12 496.929 68.528H485.001C485.449 66.12 487.073 65.28 490.937 65.28ZM525.562 86.56C535.362 86.56 542.026 81.016 542.026 71.888C542.026 62.704 535.362 57.216 525.562 57.216C515.762 57.216 509.098 62.704 509.098 71.888C509.098 81.016 515.762 86.56 525.562 86.56ZM525.562 77.264C520.802 77.264 519.514 75.976 519.514 71.888C519.514 67.8 520.802 66.456 525.562 66.456C530.322 66.456 531.61 67.8 531.61 71.888C531.61 75.976 530.322 77.264 525.562 77.264ZM548.923 95.296C554.803 95.296 558.219 92.496 558.219 86.728V75.248H544.555V86H550.547V86.784C550.547 88.408 549.931 88.8 548.587 88.8H545.059V95.296H548.923ZM578.511 86.56C584.615 86.56 588.087 84.04 589.151 80.064H589.711V86H599.567V69.928C599.567 62.032 594.807 57.216 584.951 57.216C575.375 57.216 569.103 62.032 569.103 69.536V69.648H579.631V69.424C579.631 67.072 580.695 66.4 584.167 66.4C587.919 66.4 589.151 66.848 589.151 69.704V70.264L577.671 71.384C571.287 72 568.543 74.856 568.543 78.832C568.543 83.648 572.127 86.56 578.511 86.56ZM579.127 78.16C579.127 77.544 579.519 77.208 580.471 77.096L589.095 76.088C588.815 78.608 586.743 79.224 581.647 79.224C580.023 79.224 579.127 79.056 579.127 78.16ZM614.28 86.56C621.952 86.56 625.088 82.136 625.704 77.432H626.264V86H636.12V57.776H625.592V72.336C625.592 75.976 624.416 77.152 619.544 77.152C614.728 77.152 613.216 75.92 613.216 72V57.776H602.688V75.864C602.688 81.968 606.384 86.56 614.28 86.56ZM652.098 86.56C658.706 86.56 662.066 83.984 662.962 78.384H663.522V86H673.378V48.48H662.85V65.056H662.29C661.45 60.352 658.314 57.216 651.65 57.216C643.362 57.216 638.714 62.704 638.714 71.888C638.714 81.016 643.474 86.56 652.098 86.56ZM649.354 71.888C649.354 68.136 651.034 66.792 655.906 66.792C660.61 66.792 662.85 67.576 662.85 71.552V71.944C662.85 76.032 660.61 76.928 655.906 76.928C651.034 76.928 649.354 75.64 649.354 71.888ZM687.263 55.2V48.48H676.735V55.2H687.263ZM687.263 86V57.776H676.735V86H687.263ZM706.249 86.56C716.049 86.56 722.713 81.016 722.713 71.888C722.713 62.704 716.049 57.216 706.249 57.216C696.449 57.216 689.785 62.704 689.785 71.888C689.785 81.016 696.449 86.56 706.249 86.56ZM706.249 77.264C701.489 77.264 700.201 75.976 700.201 71.888C700.201 67.8 701.489 66.456 706.249 66.456C711.009 66.456 712.297 67.8 712.297 71.888C712.297 75.976 711.009 77.264 706.249 77.264ZM64.04 156.56C77.76 156.56 81.736 150.904 81.736 142.112V141.16H87.168V132.536H81.736V127.776H71.376V132.536H61.632C59.56 132.536 58.384 132.256 58.384 129.96C58.384 127.552 59.504 127.272 61.912 127.272H69.304V117.696H63.424C53.568 117.696 47.856 120.664 47.856 127.776C47.856 131.92 50.376 135.28 55.528 135.728V136.456C49.984 136.848 46.12 139.704 46.12 145.472C46.12 153.256 52.56 156.56 64.04 156.56ZM64.432 146.984C58.104 146.984 56.816 146.312 56.816 144.072C56.816 141.608 58.104 141.16 60.232 141.16H71.376V142.672C71.376 146.648 70.536 146.984 64.432 146.984ZM108.341 156V118.48H97.8128V156H108.341ZM122.231 125.2V118.48H111.703V125.2H122.231ZM122.231 156V127.776H111.703V156H122.231ZM149.17 156L161.826 127.776H150.29L143.178 145.752H142.45L135.394 127.776H123.634L136.178 156H149.17ZM178.955 156.56C188.475 156.56 194.467 152.136 194.467 145.864V145.192H183.939V145.808C183.939 147.488 182.819 148.216 178.563 148.216C174.083 148.216 172.571 147.264 172.403 143.848H194.523C194.635 142.84 194.691 142.112 194.691 141.16C194.691 132.088 188.475 127.216 178.731 127.216C169.323 127.216 162.659 132.704 162.659 141.888C162.659 152.472 169.379 156.56 178.955 156.56ZM178.507 135.28C182.427 135.28 184.107 136.12 184.499 138.528H172.571C173.019 136.12 174.643 135.28 178.507 135.28ZM221.176 156.56C230.808 156.56 236.968 151.576 236.968 144.072V143.12H226.496V143.624C226.496 146.536 224.368 147.096 220.952 147.096C217.088 147.096 215.24 146.256 215.24 141.888C215.24 137.464 217.088 136.624 220.952 136.624C224.368 136.624 226.496 137.24 226.496 140.152V140.6H236.968V139.704C236.968 132.144 230.808 127.216 221.176 127.216C211.152 127.216 204.768 132.704 204.768 141.888C204.768 151.016 211.152 156.56 221.176 156.56ZM250.31 156V118.48H239.782V156H250.31ZM262.8 156.56C268.904 156.56 272.376 154.04 273.44 150.064H274V156H283.856V139.928C283.856 132.032 279.096 127.216 269.24 127.216C259.664 127.216 253.392 132.032 253.392 139.536V139.648H263.92V139.424C263.92 137.072 264.984 136.4 268.456 136.4C272.208 136.4 273.44 136.848 273.44 139.704V140.264L261.96 141.384C255.576 142 252.832 144.856 252.832 148.832C252.832 153.648 256.416 156.56 262.8 156.56ZM263.416 148.16C263.416 147.544 263.808 147.208 264.76 147.096L273.384 146.088C273.104 148.608 271.032 149.224 265.936 149.224C264.312 149.224 263.416 149.056 263.416 148.16ZM302.153 156.56C311.505 156.56 316.769 152.752 316.769 147.488C316.769 142.728 314.137 139.984 305.905 139.088L300.305 138.472C297.001 138.136 296.553 137.744 296.553 136.96C296.553 135.896 297.001 135.448 300.417 135.448C304.673 135.448 305.233 136.12 305.233 137.576V137.912H315.761V137.688C315.761 130.744 310.553 127.216 300.753 127.216C290.169 127.216 286.193 131.528 286.193 136.512C286.193 141.272 289.329 144.016 295.153 144.632L303.329 145.528C305.961 145.808 306.409 146.032 306.409 146.928C306.409 147.88 305.849 148.272 302.209 148.272C298.401 148.272 297.393 148.104 297.393 146.536V145.976H286.865V146.2C286.865 152.696 292.185 156.56 302.153 156.56ZM334.473 156.56C343.825 156.56 349.089 152.752 349.089 147.488C349.089 142.728 346.457 139.984 338.225 139.088L332.625 138.472C329.321 138.136 328.873 137.744 328.873 136.96C328.873 135.896 329.321 135.448 332.737 135.448C336.993 135.448 337.553 136.12 337.553 137.576V137.912H348.081V137.688C348.081 130.744 342.873 127.216 333.073 127.216C322.489 127.216 318.513 131.528 318.513 136.512C318.513 141.272 321.649 144.016 327.473 144.632L335.649 145.528C338.281 145.808 338.729 146.032 338.729 146.928C338.729 147.88 338.169 148.272 334.529 148.272C330.721 148.272 329.713 148.104 329.713 146.536V145.976H319.185V146.2C319.185 152.696 324.505 156.56 334.473 156.56ZM367.354 156.56C376.874 156.56 382.865 152.136 382.865 145.864V145.192H372.338V145.808C372.338 147.488 371.218 148.216 366.962 148.216C362.482 148.216 360.97 147.264 360.802 143.848H382.922C383.034 142.84 383.09 142.112 383.09 141.16C383.09 132.088 376.874 127.216 367.13 127.216C357.722 127.216 351.058 132.704 351.058 141.888C351.058 152.472 357.778 156.56 367.354 156.56ZM366.906 135.28C370.826 135.28 372.506 136.12 372.898 138.528H360.97C361.418 136.12 363.042 135.28 366.906 135.28ZM401.083 156.56C410.435 156.56 415.699 152.752 415.699 147.488C415.699 142.728 413.067 139.984 404.835 139.088L399.235 138.472C395.931 138.136 395.483 137.744 395.483 136.96C395.483 135.896 395.931 135.448 399.347 135.448C403.603 135.448 404.163 136.12 404.163 137.576V137.912H414.691V137.688C414.691 130.744 409.483 127.216 399.683 127.216C389.099 127.216 385.123 131.528 385.123 136.512C385.123 141.272 388.259 144.016 394.083 144.632L402.259 145.528C404.891 145.808 405.339 146.032 405.339 146.928C405.339 147.88 404.779 148.272 401.139 148.272C397.331 148.272 396.323 148.104 396.323 146.536V145.976H385.795V146.2C385.795 152.696 391.115 156.56 401.083 156.56Z" fill="#000F24"/>
<path fill-rule="evenodd" clip-rule="evenodd" d="M47.5891 6.18876C47.5038 6.6099 47.4635 6.80938 47.4077 7.08262L47.1336 7.2629C46.9923 7.82138 46.8623 8.36218 46.718 8.89876C46.5964 9.35163 46.432 9.79496 46.3353 10.2523C46.2277 10.7618 46.0618 11.2542 45.9767 11.7752C45.9004 12.2455 45.9542 12.7712 45.7086 13.1937C45.422 13.6842 45.5973 14.2327 45.4144 14.7338C45.2453 15.1965 45.1628 15.6906 45.0428 16.1697C45.0536 16.172 45.1268 16.1868 45.2177 16.2058C45.0472 17.68 44.8393 19.1569 45.1157 20.7247C45.0915 20.758 45.0105 20.8708 44.9108 21.0093C45.0111 21.042 45.1027 21.0719 45.1972 21.1025C45.28 21.9563 45.4178 22.8206 45.4745 23.6733C45.5439 24.7232 45.8582 25.7442 45.7679 26.8165C45.7226 27.355 45.8516 27.9414 46.0443 28.4522C46.1628 28.765 45.9509 28.8271 45.875 29.0223C45.9901 29.0759 46.1051 29.1301 46.2595 29.2021C46.325 29.8789 46.3927 30.5756 46.4623 31.2934C46.2862 31.2654 46.1797 31.2482 46.0115 31.2216C45.8875 31.5372 45.5093 31.774 45.7967 32.4205C45.5086 32.2004 45.3304 32.0643 45.1111 31.8968C45.0388 32.331 45.0102 32.5016 44.9742 32.7167C45.1088 32.7803 45.235 32.8396 45.3738 32.905C45.387 33.106 45.4029 33.3365 45.4176 33.5588C45.3325 33.5974 45.2428 33.6698 45.2057 33.6496C44.9327 33.4961 44.6697 33.324 44.4056 33.1591C43.9049 33.3711 44.2334 33.7821 44.169 34.0957C44.095 34.0805 44.0213 34.0649 43.9188 34.0441C43.8447 34.1732 43.7654 34.3106 43.6821 34.4552C43.3732 34.3316 43.082 34.2153 42.6688 34.0499C42.0961 33.3076 41.5047 32.3988 40.7614 31.6383C40.3779 31.2451 40.1212 30.699 39.6941 30.4395C39.1641 30.1169 39.0678 29.5086 38.636 29.2066C38.1602 28.8731 37.9676 28.324 37.5618 27.998C37.1162 27.6402 36.9015 27.1066 36.497 26.7798C35.534 26.0018 34.8761 24.9031 33.7907 24.2661C33.6287 23.7712 32.9867 23.5927 32.9625 23.0072C32.4021 22.7532 32.006 22.3018 31.584 21.8774C30.9884 21.2781 30.2078 20.8844 29.7173 20.1585C29.5784 19.9534 29.2818 19.855 28.9166 19.6158C29.2426 20.669 29.5221 21.573 29.8641 22.6787C29.8334 22.7743 29.7304 23.0919 29.6264 23.4122C29.887 23.6349 30.0703 23.7915 30.2657 23.9589C30.4968 25.0245 31.1461 26.0734 30.9305 27.2837C31.4717 27.3392 31.4728 27.9264 31.7717 28.1691C31.9206 29.5129 32.5745 30.6252 33.0403 31.9594C33.0348 31.9803 32.9886 32.1619 32.9446 32.3346C33.0571 32.8441 33.5505 33.1373 33.56 33.7261C33.5664 34.1532 33.826 34.6374 34.1105 34.9832C34.4576 35.4053 34.6249 35.9264 34.6712 36.3714C34.7288 36.924 35.1193 37.2055 35.2851 37.6994C35.2538 37.8236 35.2079 38.0055 35.1442 38.2576C35.8464 39.1358 36.2864 40.2024 36.8565 41.2319C36.7964 41.4034 36.7359 41.5745 36.6582 41.7957L37.2948 42.7632C37.0753 42.7356 36.9739 42.7224 36.7627 42.6952C37.1279 43.1486 37.0526 43.5948 36.8616 44.0898C36.7407 44.0975 36.6013 44.1064 36.4831 44.1143C36.3079 44.9098 36.1279 45.7268 35.9639 46.4722C35.6662 46.5654 35.4403 46.6358 35.1487 46.7269C35.071 46.6804 34.9252 46.5928 34.7796 46.5057L34.5585 46.6512C34.5902 46.7717 34.625 46.9044 34.6781 47.1065C34.148 47.5142 33.5617 47.4269 32.9763 47.2757C32.6134 46.8862 32.6134 46.8862 31.8702 46.9472C32.1183 47.0756 32.2122 47.1243 32.3584 47.2003C32.2876 47.2781 32.2077 47.3668 32.0959 47.4894C31.925 47.2989 31.7848 47.1423 31.6107 46.9485C31.566 47.084 31.5358 47.1737 31.5136 47.2404C30.8108 47.209 30.1064 47.1776 29.3171 47.1421L29.0407 46.722C28.992 46.8883 28.9632 46.9856 28.9247 47.1176C28.8149 47.0322 28.7116 46.9513 28.5751 46.8448L28.1754 47.1078C27.9724 47.0659 27.8253 47.0352 27.6773 47.0047C27.7132 46.687 27.5278 46.3321 27.8374 46.0565C27.2186 46.0317 27.2918 46.5394 27.1512 46.9858C27.012 46.8097 26.9034 46.6725 26.7897 46.5281C26.2474 46.5488 25.7078 46.4559 25.1645 46.7912C24.711 47.0712 24.2011 46.7739 23.729 46.4504C23.6791 46.5863 23.649 46.6686 23.5894 46.8328C23.4451 46.6858 23.3174 46.5551 23.1548 46.3885C23.1141 46.424 23.0542 46.4769 22.8755 46.6331C22.5118 46.62 21.9867 46.503 21.5089 46.6066C20.8286 46.7542 20.2571 46.2804 19.5629 46.4431C18.9541 46.5858 18.2965 46.5365 17.6391 46.433C16.7425 46.2921 15.8128 46.3643 14.8311 46.3439L15.1716 46.8615C15.2894 46.8445 15.4589 46.8203 15.6903 46.7876C15.6945 46.9855 15.6979 47.1588 15.7028 47.3659C16.0007 47.5134 16.3027 47.7019 16.6311 47.8137C16.906 47.9074 17.1447 48.2334 17.4931 48.0026C17.6341 48.422 18.0258 48.44 18.3689 48.5147C18.347 48.6194 18.3319 48.6928 18.32 48.7501C19.5759 49.0275 20.6722 49.644 21.7319 50.345C22.1383 50.4188 22.5444 50.4926 22.9467 50.5661L23.1526 50.8789C23.7246 51.0996 24.2221 51.2913 24.7884 51.5092C24.6684 51.7443 24.5834 51.9113 24.4737 52.1268C24.8055 52.2957 25.1176 52.4543 25.4067 52.6013C25.6124 52.3796 25.7903 52.1888 25.9661 51.9993C26.7108 52.315 27.3941 52.6046 28.268 52.9752C27.8474 53.1324 27.6261 53.0063 27.3734 52.9817C27.3897 53.5045 27.8482 53.3228 28.0942 53.4525C28.0882 53.5888 28.0811 53.7244 28.067 54.0148C28.2735 53.9444 28.4668 53.8787 28.6601 53.813C28.645 53.8918 28.6299 53.9707 28.6152 54.0493C28.6893 53.8988 28.7634 53.7485 28.8454 53.583C29.1348 53.7515 29.3737 53.8909 29.6091 54.0285C29.5894 54.1713 29.5746 54.2798 29.5582 54.3966C29.656 54.421 29.7598 54.4475 29.894 54.4812C30.119 54.2642 30.3589 54.034 30.5769 53.8236C31.5229 54.2886 32.4226 54.7314 33.3226 55.174C33.3135 55.2167 33.3049 55.2595 33.296 55.3016C33.1884 55.297 33.081 55.2928 32.815 55.2819C33.216 55.7008 33.5469 56.0463 33.9315 56.4477C33.6399 56.7928 33.3702 57.1115 32.9784 57.5741C32.9765 57.5946 32.9577 57.8177 32.9337 58.1007C31.6942 57.5567 30.4323 57.3175 29.2094 56.9956C27.517 56.5497 25.9542 55.7984 24.309 55.2511C22.5961 54.6814 20.9579 53.8841 19.2849 53.1913C18.3326 52.7966 17.3673 52.4311 16.4227 52.0179C15.0968 51.4375 13.759 50.8758 12.4804 50.2037C11.9171 49.9075 11.2788 49.8326 10.7456 49.4154C10.2878 49.0572 9.64403 48.9348 9.08007 48.7144C7.64001 48.1511 6.21815 47.5461 4.71541 47.146C3.73671 46.886 2.79158 46.4969 1.69104 46.1173L0.949545 44.9903C1.21719 44.8017 1.4418 44.5018 1.93871 44.6052C1.80315 44.3389 1.67624 44.0902 1.55636 43.8552C2.03253 42.8955 2.81386 42.2699 3.86373 41.7518C3.98531 41.7987 4.22853 41.8925 4.67438 42.0638C4.72563 42.0995 4.98035 42.2764 5.28604 42.4893C5.51176 42.1881 5.68131 41.962 5.84103 41.7488C6.34463 41.7765 6.85143 41.7698 7.34647 41.8418C7.76841 41.9028 8.25745 41.5587 8.58069 42.1925C8.62885 41.962 8.64373 41.8881 8.67237 41.7508C9.12832 42.0776 9.74582 41.5141 10.148 42.1074C10.3263 42.0182 10.4864 41.9382 10.6758 41.8433C10.745 41.9093 10.821 41.9819 10.9051 42.0623C12.3077 41.7509 13.7239 41.9744 15.1661 42.0985C15.2353 42.053 15.328 41.9414 15.4245 41.9374C15.8144 41.9218 16.3061 41.7942 16.5734 41.9782C17.0075 42.2778 17.6035 41.8544 17.9178 42.4211C18.1548 42.284 18.3746 42.1568 18.61 42.0202C18.7174 42.0998 18.8289 42.1826 18.9653 42.2838C19.0796 42.217 19.2048 42.1436 19.3985 42.031C19.7582 42.1151 20.1766 42.2128 20.6715 42.3284C20.5256 42.5677 20.4393 42.7087 20.3195 42.9041C20.6608 42.9066 20.9686 42.9088 21.2768 42.9109C21.3325 42.7904 21.3874 42.6705 21.4748 42.4786C21.6633 42.5698 21.8279 42.6941 22.0077 42.7225C22.1649 42.7475 22.3394 42.6645 22.5036 42.6298C22.5472 42.5223 22.5999 42.392 22.6897 42.1707C22.8852 42.2666 23.0522 42.3492 23.3335 42.4874C23.3553 42.5568 23.4276 42.7849 23.5096 43.0444L23.8919 42.7928C24.275 43.0014 24.541 43.1502 25.0139 42.9655C25.8177 42.6513 26.7255 42.6852 27.5915 42.596C27.7241 42.5821 27.8751 42.7474 28.0158 42.8294C28.0508 42.7147 28.08 42.6195 28.0769 42.6291C28.5598 42.6902 29.019 42.6836 29.4323 42.8182C29.8527 42.9546 30.2282 43.2306 30.7229 43.5002C30.9844 43.4486 30.9078 43.2144 30.4671 42.7715C30.949 42.9275 31.1108 42.9797 31.3069 43.0435C31.3257 43.2008 31.3449 43.3627 31.3815 43.6708C31.5759 43.3971 31.7064 43.2135 31.8536 43.0061C31.9456 43.012 32.0521 43.0179 32.2255 43.0282C32.2498 42.8857 32.3594 42.6536 32.2909 42.5728C31.9554 42.1776 31.9481 41.7179 31.9099 41.2914C31.2742 40.7199 31.2571 39.8636 30.9072 39.175C30.5213 38.4174 30.1682 37.6274 29.9385 36.8126C29.7179 36.0326 29.5138 35.2289 29.1429 34.5339C28.7487 33.7961 28.5806 32.9949 28.2468 32.2458C27.9065 31.482 27.6724 30.6627 27.471 29.8478C27.2775 29.0623 26.9017 28.3471 26.7177 27.5506C26.5306 26.7409 26.2742 25.9186 25.952 25.1523C25.6327 24.3927 25.5504 23.59 25.2817 22.8288C25.0138 22.0704 24.7817 21.2979 24.573 20.521C24.3562 19.7146 24.193 18.8938 23.9938 18.0823C23.8025 17.3024 23.5951 16.526 23.3778 15.6824C23.4347 15.4065 23.5096 15.0418 23.5839 14.6821C23.6794 14.6961 23.7881 14.7114 23.8859 14.7259C24.3088 14.4894 24.0767 14.1447 24.0587 13.8868C24.4151 13.5452 24.7485 13.2252 25.109 12.8795C25.1647 12.8889 25.2744 12.907 25.3758 12.9241C25.5793 12.1586 26.2208 12.2174 26.7738 12.2538C27.3323 12.291 27.8812 12.4653 28.4727 12.5872C29.198 13.4125 30.4541 13.7166 30.8575 14.9371C31.0159 14.8741 31.1136 14.8351 31.2773 14.7695C31.7359 15.267 32.2207 15.7935 32.7694 16.3894C32.7955 16.3816 32.924 16.3432 33.0192 16.3148C33.5092 16.743 33.9958 17.1472 34.4552 17.5803C34.6357 17.7506 34.869 17.9793 34.8801 18.1922C34.9088 18.7332 35.125 19.0579 35.6077 19.2981C35.8295 19.4086 35.9601 19.7004 36.2559 19.8177L35.7689 19.0775C35.9177 19.0564 36.0164 19.0262 36.0256 19.044C36.3057 19.5677 36.7934 19.8998 37.2334 20.246C37.6041 20.5375 37.9466 20.9142 37.9727 21.2862C38.0065 21.7687 38.3555 21.9743 38.5047 22.5411C38.6069 22.2736 38.6367 22.196 38.6667 22.1172C39.3943 22.4402 39.648 22.6079 39.7202 23.1902C39.7777 23.656 40.1056 23.8598 40.4007 24.1357C40.2643 23.8664 40.1278 23.5973 39.8931 23.1343C40.4245 23.6594 40.7976 24.0282 41.3238 24.5487C41.0152 22.6143 41.2178 20.8786 41.2292 19.1423C41.2407 17.3736 41.3857 16.4591 41.8506 15.0684C41.9347 14.8157 41.857 14.5124 41.9232 14.2497C42.0386 13.795 42.2468 13.3616 42.3433 12.9039C42.4317 12.4837 42.36 12.0257 42.4712 11.6145C42.7663 10.5264 43.2411 9.49211 43.4652 8.37831C43.4872 8.26919 43.6846 8.19485 43.8138 8.09437C43.8087 7.90646 43.7382 7.6756 43.8081 7.50071C44.1495 6.64599 44.4736 5.77679 44.912 4.9713C45.2603 4.33107 45.5563 3.66342 45.9625 3.0396C46.3637 2.42327 46.9181 2.00295 47.3724 1.477C47.8425 0.933088 48.568 0.682368 49.3561 0.565994C49.2201 1.60947 50.3598 1.7585 50.7618 2.45689C50.5783 2.12444 50.3945 1.79166 50.2108 1.45888C50.2631 1.42902 50.3158 1.39925 50.368 1.36931L50.779 1.99395C50.9033 2.18283 51.0245 2.37384 51.1523 2.55992C51.2963 2.76818 51.3869 3.0432 51.7167 3.02901C51.5155 3.32899 51.9917 3.34141 51.9458 3.5406C51.8643 3.89829 52.3987 3.69094 52.3558 4.0374C52.3325 4.22869 52.4341 4.45094 52.526 4.63598C52.6397 4.86449 52.8019 5.06869 52.93 5.26351C52.8091 5.42195 52.7251 5.53227 52.592 5.70666C52.7961 5.65457 52.9252 5.62171 53.1049 5.57541C53.1794 5.6697 53.2674 5.78084 53.411 5.96297C53.3494 6.26338 53.2762 6.6194 53.2104 6.93931C53.3294 7.10054 53.4155 7.21692 53.494 7.32351C53.6596 7.28441 53.7945 7.25267 53.981 7.2084C53.8718 7.38977 53.7881 7.5286 53.7047 7.66777L53.8408 7.8747C53.9994 7.85212 54.1692 7.82825 54.3562 7.80135C54.537 8.46036 54.6172 9.1325 55.0216 9.71622C55.2044 9.98065 55.1881 10.383 55.27 10.7601C55.2634 10.7575 55.3268 10.7792 55.4236 10.8127C55.6092 11.3714 55.8016 11.9503 56.0385 12.6636C55.7374 12.5686 55.5365 12.505 55.3494 12.4461C55.5053 12.7749 55.6596 12.9589 55.982 13.1906C55.9798 13.2263 55.9813 13.2625 55.9754 13.2981C55.9622 13.3722 55.9456 13.4456 55.9275 13.5319C56.0012 13.5438 56.0748 13.554 56.1476 13.568C56.1829 13.575 56.2171 13.5892 56.2543 13.6014C56.3368 13.9031 56.4198 14.2071 56.5288 14.6064L55.699 15.1523C55.7062 15.2085 55.7138 15.2645 55.7216 15.3208C55.8913 15.3202 56.0611 15.3191 56.3026 15.3184C56.3462 15.2362 56.4229 15.0904 56.5695 14.8136C56.7487 15.3214 56.8953 15.7356 57.0372 16.138C56.9396 16.2385 56.8661 16.3136 56.7897 16.392C57.4254 16.6557 57.3946 17.1771 57.3535 17.7138C57.3407 17.885 57.3643 18.0671 57.4116 18.2324C57.5172 18.6032 57.6483 18.9667 57.7943 19.408C57.7853 19.4185 57.7177 19.4981 57.5784 19.6631C57.7054 19.8305 57.8577 20.0312 58.1003 20.3501C58.1099 20.2669 58.0697 20.3707 58.0916 20.4583C58.269 21.1687 58.5304 21.857 58.6491 22.5831C58.6604 22.6515 58.7254 22.7088 58.7493 22.7769C58.9043 23.2204 58.5271 23.7134 58.8594 24.1349C59.1528 24.507 59.0028 24.9587 59.1158 25.3633C59.2375 25.7985 59.3185 26.2449 59.4096 26.6877C59.4379 26.8243 59.4154 26.9749 59.4635 27.1015C59.5153 27.2389 59.6219 27.3557 59.7423 27.5387C59.6839 27.7031 59.6095 27.9142 59.554 28.0702L59.9751 28.7104C59.8271 29.3497 59.6669 29.994 60.124 30.5907C60.1647 30.6437 60.207 30.7305 60.1919 30.786C59.9361 31.7257 60.4941 32.5739 60.4827 33.5016C60.4718 34.3962 60.7583 35.2906 60.8245 36.1915C60.9125 37.385 60.9148 38.5843 60.9474 39.7816C60.9507 39.8915 60.9301 40.0161 60.8787 40.1114C60.3997 41.0027 59.9109 41.889 59.4712 42.6934C58.948 42.9086 58.5179 43.0855 57.965 43.3129C57.7723 43.2226 57.4557 43.0738 57.1481 42.9296C57.0109 42.296 56.8474 41.6887 56.7554 41.0704C56.663 40.449 56.5956 39.8161 56.5991 39.1891C56.6057 37.8163 56.3049 36.4772 56.2124 35.1181C56.1576 34.3137 55.8624 33.5243 56.0498 32.7044C55.6131 31.4022 55.5516 30.0365 55.3321 28.697C55.2372 28.1179 55.2283 27.5179 55.0376 26.9462C54.8612 26.4197 54.768 25.8658 54.6359 25.3245C54.2244 23.6319 53.8206 21.938 53.3964 20.2488C53.1756 19.3692 52.935 18.4933 52.6735 17.6247C52.4098 16.7499 52.0495 15.8879 51.8301 15.0203C51.4456 13.4997 50.6615 12.1505 50.2243 10.6586C49.9937 9.87077 49.4866 9.15726 49.0585 8.43733C48.642 7.73558 48.1676 7.06803 47.5891 6.18876Z" fill="#004DB3"/>
</svg>
